<svg width="38" height="21" viewBox="0 0 38 21" fill="none" xmlns="http://www.w3.org/2000/svg">
<path d="M1.552 2.612L8.296 2.6L8.26 1.556H8.428L8.56 2.744L9.088 7.052L8.92 7.076C8.92 7.076 8.716 5.804 8.632 5.204C8.38 3.404 8.02 2.828 6.748 2.804C6.496 2.804 6.052 2.792 6.052 2.792H5.428V10.748L6.52 10.832V11H3.304V10.844C3.304 10.844 3.832 10.832 3.976 10.796C4.264 10.712 4.336 10.556 4.372 10.34C4.396 10.196 4.42 9.896 4.42 9.692V2.804H3.796C3.796 2.804 3.352 2.816 3.1 2.816C1.828 2.84 1.468 3.416 1.216 5.216C1.132 5.816 0.928 7.088 0.928 7.088L0.76 7.064L1.288 2.756L1.42 1.568H1.588L1.552 2.612Z" fill="black"/>
<path d="M11.988 9.072C11.556 9.072 11.164 8.968 10.812 8.76C10.46 8.552 10.176 8.272 9.96 7.92C9.752 7.568 9.648 7.172 9.648 6.732C9.648 6.228 9.756 5.8 9.972 5.448C10.188 5.096 10.472 4.828 10.824 4.644C11.184 4.46 11.584 4.368 12.024 4.368C12.496 4.368 12.924 4.504 13.308 4.776C13.7 5.04 13.984 5.384 14.16 5.808L14.136 5.964L14.196 4.464H14.376V9H14.148V7.452L14.184 7.62C14.104 7.828 13.992 8.02 13.848 8.196C13.704 8.372 13.536 8.528 13.344 8.664C13.152 8.792 12.94 8.892 12.708 8.964C12.484 9.036 12.244 9.072 11.988 9.072ZM12.012 8.868C12.404 8.868 12.76 8.78 13.08 8.604C13.4 8.428 13.656 8.188 13.848 7.884C14.04 7.572 14.14 7.22 14.148 6.828V6.336C14.084 6.008 13.948 5.712 13.74 5.448C13.54 5.184 13.288 4.972 12.984 4.812C12.688 4.652 12.364 4.572 12.012 4.572C11.62 4.572 11.26 4.66 10.932 4.836C10.612 5.012 10.356 5.264 10.164 5.592C9.98 5.912 9.888 6.288 9.888 6.72C9.888 7.12 9.984 7.484 10.176 7.812C10.368 8.132 10.624 8.388 10.944 8.58C11.264 8.772 11.62 8.868 12.012 8.868ZM17.0999 2.484H17.3399V4.56H18.8519V4.764H17.3399V9H17.0999V4.764H16.0439V4.56H17.0999V2.484ZM20.7444 2.484H20.9844V4.56H22.4964V4.764H20.9844V9H20.7444V4.764H19.6884V4.56H20.7444V2.484ZM23.441 6.72C23.441 6.288 23.545 5.892 23.753 5.532C23.969 5.172 24.253 4.888 24.605 4.68C24.965 4.464 25.365 4.356 25.805 4.356C26.245 4.356 26.645 4.464 27.005 4.68C27.365 4.888 27.649 5.172 27.857 5.532C28.073 5.892 28.181 6.288 28.181 6.72C28.181 7.16 28.073 7.56 27.857 7.92C27.649 8.272 27.365 8.552 27.005 8.76C26.645 8.968 26.245 9.072 25.805 9.072C25.365 9.072 24.965 8.972 24.605 8.772C24.253 8.564 23.969 8.284 23.753 7.932C23.545 7.58 23.441 7.176 23.441 6.72ZM23.681 6.72C23.681 7.12 23.773 7.484 23.957 7.812C24.149 8.132 24.405 8.388 24.725 8.58C25.053 8.772 25.413 8.868 25.805 8.868C26.197 8.868 26.553 8.772 26.873 8.58C27.193 8.388 27.449 8.132 27.641 7.812C27.833 7.484 27.929 7.12 27.929 6.72C27.929 6.328 27.833 5.972 27.641 5.652C27.449 5.324 27.193 5.064 26.873 4.872C26.553 4.672 26.197 4.572 25.805 4.572C25.397 4.572 25.033 4.676 24.713 4.884C24.393 5.092 24.141 5.36 23.957 5.688C23.773 6.016 23.681 6.36 23.681 6.72ZM29.4761 6.72C29.4761 6.288 29.5801 5.892 29.7881 5.532C30.0041 5.172 30.2881 4.888 30.6401 4.68C31.0001 4.464 31.4001 4.356 31.8401 4.356C32.2801 4.356 32.6801 4.464 33.0401 4.68C33.4001 4.888 33.6841 5.172 33.8921 5.532C34.1081 5.892 34.2161 6.288 34.2161 6.72C34.2161 7.16 34.1081 7.56 33.8921 7.92C33.6841 8.272 33.4001 8.552 33.0401 8.76C32.6801 8.968 32.2801 9.072 31.8401 9.072C31.4001 9.072 31.0001 8.972 30.6401 8.772C30.2881 8.564 30.0041 8.284 29.7881 7.932C29.5801 7.58 29.4761 7.176 29.4761 6.72ZM29.7161 6.72C29.7161 7.12 29.8081 7.484 29.9921 7.812C30.1841 8.132 30.4401 8.388 30.7601 8.58C31.0881 8.772 31.4481 8.868 31.8401 8.868C32.2321 8.868 32.5881 8.772 32.9081 8.58C33.2281 8.388 33.4841 8.132 33.6761 7.812C33.8681 7.484 33.9641 7.12 33.9641 6.72C33.9641 6.328 33.8681 5.972 33.6761 5.652C33.4841 5.324 33.2281 5.064 32.9081 4.872C32.5881 4.672 32.2321 4.572 31.8401 4.572C31.4321 4.572 31.0681 4.676 30.7481 4.884C30.4281 5.092 30.1761 5.36 29.9921 5.688C29.8081 6.016 29.7161 6.36 29.7161 6.72Z" fill="black"/>
<path d="M16.516 17.072C16.02 17.072 15.576 16.94 15.184 16.676C14.792 16.404 14.508 16.056 14.332 15.632L14.368 15.344V19.172H14.128V12.464H14.356L14.368 14.156L14.344 13.808C14.52 13.384 14.804 13.04 15.196 12.776C15.596 12.504 16.04 12.368 16.528 12.368C16.96 12.368 17.352 12.472 17.704 12.68C18.056 12.888 18.336 13.172 18.544 13.532C18.76 13.892 18.868 14.292 18.868 14.732C18.868 15.172 18.76 15.572 18.544 15.932C18.336 16.284 18.052 16.564 17.692 16.772C17.34 16.972 16.948 17.072 16.516 17.072ZM16.492 16.868C16.892 16.868 17.252 16.772 17.572 16.58C17.892 16.388 18.148 16.132 18.34 15.812C18.532 15.484 18.628 15.124 18.628 14.732C18.628 14.332 18.532 13.968 18.34 13.64C18.148 13.312 17.892 13.052 17.572 12.86C17.252 12.668 16.896 12.572 16.504 12.572C16.112 12.572 15.752 12.668 15.424 12.86C15.104 13.052 14.848 13.308 14.656 13.628C14.464 13.948 14.368 14.304 14.368 14.696V14.816C14.376 15.192 14.476 15.536 14.668 15.848C14.868 16.16 15.124 16.408 15.436 16.592C15.756 16.776 16.108 16.868 16.492 16.868ZM20.6436 7.976H20.8836V17H20.6436V7.976ZM22.6597 14.72C22.6597 14.288 22.7637 13.892 22.9717 13.532C23.1877 13.172 23.4717 12.888 23.8237 12.68C24.1837 12.464 24.5837 12.356 25.0237 12.356C25.4637 12.356 25.8637 12.464 26.2237 12.68C26.5837 12.888 26.8677 13.172 27.0757 13.532C27.2917 13.892 27.3997 14.288 27.3997 14.72C27.3997 15.16 27.2917 15.56 27.0757 15.92C26.8677 16.272 26.5837 16.552 26.2237 16.76C25.8637 16.968 25.4637 17.072 25.0237 17.072C24.5837 17.072 24.1837 16.972 23.8237 16.772C23.4717 16.564 23.1877 16.284 22.9717 15.932C22.7637 15.58 22.6597 15.176 22.6597 14.72ZM22.8997 14.72C22.8997 15.12 22.9917 15.484 23.1757 15.812C23.3677 16.132 23.6237 16.388 23.9437 16.58C24.2717 16.772 24.6317 16.868 25.0237 16.868C25.4157 16.868 25.7717 16.772 26.0917 16.58C26.4117 16.388 26.6677 16.132 26.8597 15.812C27.0517 15.484 27.1477 15.12 27.1477 14.72C27.1477 14.328 27.0517 13.972 26.8597 13.652C26.6677 13.324 26.4117 13.064 26.0917 12.872C25.7717 12.672 25.4157 12.572 25.0237 12.572C24.6157 12.572 24.2517 12.676 23.9317 12.884C23.6117 13.092 23.3597 13.36 23.1757 13.688C22.9917 14.016 22.8997 14.36 22.8997 14.72ZM29.3549 12.464L29.3909 13.88L29.3669 13.748C29.4549 13.46 29.5989 13.216 29.7989 13.016C30.0069 12.816 30.2469 12.664 30.5189 12.56C30.7909 12.448 31.0749 12.388 31.3709 12.38L31.3589 12.596C31.0069 12.604 30.6829 12.688 30.3869 12.848C30.0909 13 29.8549 13.208 29.6789 13.472C29.5029 13.736 29.4149 14.04 29.4149 14.384V17H29.1749V12.464H29.3549ZM34.7386 17.072C34.2986 17.072 33.8986 16.968 33.5386 16.76C33.1866 16.552 32.9026 16.272 32.6866 15.92C32.4786 15.56 32.3746 15.16 32.3746 14.72C32.3746 14.288 32.4786 13.892 32.6866 13.532C32.9026 13.172 33.1866 12.888 33.5386 12.68C33.8986 12.464 34.2986 12.356 34.7386 12.356C35.2426 12.356 35.6666 12.504 36.0106 12.8C36.3626 13.088 36.6266 13.452 36.8026 13.892L32.6866 15.56L32.6146 15.356L36.5986 13.748L36.5386 13.868C36.3706 13.516 36.1306 13.212 35.8186 12.956C35.5146 12.7 35.1506 12.572 34.7266 12.572C34.3346 12.572 33.9786 12.668 33.6586 12.86C33.3386 13.052 33.0826 13.312 32.8906 13.64C32.7066 13.968 32.6146 14.328 32.6146 14.72C32.6146 15.088 32.7026 15.436 32.8786 15.764C33.0546 16.092 33.2986 16.36 33.6106 16.568C33.9306 16.768 34.3066 16.868 34.7386 16.868C35.0186 16.868 35.2826 16.816 35.5306 16.712C35.7866 16.608 36.0106 16.468 36.2026 16.292L36.3586 16.46C36.1426 16.644 35.8946 16.792 35.6146 16.904C35.3426 17.016 35.0506 17.072 34.7386 17.072Z" fill="black"/>
<path d="M5.26 18.12C3.064 18.12 4.348 14.64 4.648 13.74L4.828 13.812C4.42 15 3.448 17.928 5.272 17.928C7.864 17.928 9.796 9.54 7.576 9.54C6.376 9.54 5.596 11.808 5.296 12.732L5.116 12.672C5.392 11.724 6.268 9.348 7.54 9.348C8.908 9.348 9.484 10.908 9.388 12.72C9.988 10.908 11.26 9.348 13.108 9.348C15.304 9.348 14.02 12.828 13.72 13.728L13.54 13.656C13.948 12.468 14.92 9.54 13.096 9.54C10.504 9.54 8.572 17.928 10.792 17.928C11.992 17.928 12.772 15.66 13.072 14.736L13.252 14.796C12.976 15.744 12.1 18.12 10.828 18.12C9.46 18.12 8.884 16.56 8.98 14.748C8.38 16.56 7.108 18.12 5.26 18.12Z" fill="black"/>
</svg>
