<svg width="94" height="10" viewBox="0 0 94 10" fill="none" xmlns="http://www.w3.org/2000/svg">
<path d="M0.26 0.167999H6.212L5.996 1.884H3.884L3.008 9H1.208L2.084 1.884H0.0440001L0.26 0.167999ZM7.42794 9.12C7.08394 9.128 6.74794 9.032 6.41994 8.832C6.09194 8.632 5.81994 8.34 5.60394 7.956C5.39594 7.572 5.29194 7.108 5.29194 6.564C5.29194 6.172 5.36394 5.796 5.50794 5.436C5.65194 5.068 5.85594 4.74 6.11994 4.452C6.38394 4.156 6.69594 3.924 7.05594 3.756C7.41594 3.58 7.81194 3.492 8.24394 3.492C8.59594 3.492 8.87994 3.532 9.09594 3.612C9.31994 3.692 9.49994 3.796 9.63594 3.924C9.77194 4.044 9.88794 4.176 9.98394 4.32L9.87594 4.572L10.1399 3.756H11.6999L11.0639 9H9.38394L9.51594 7.86L9.61194 8.22C9.59594 8.22 9.53994 8.268 9.44394 8.364C9.34794 8.452 9.20794 8.556 9.02394 8.676C8.84794 8.796 8.62394 8.904 8.35194 9C8.08794 9.088 7.77994 9.128 7.42794 9.12ZM8.37594 7.776C8.53594 7.776 8.68794 7.748 8.83194 7.692C8.98394 7.628 9.12794 7.54 9.26394 7.428C9.39994 7.308 9.51994 7.16 9.62394 6.984L9.77994 5.7C9.73994 5.524 9.66394 5.376 9.55194 5.256C9.43994 5.128 9.29994 5.032 9.13194 4.968C8.96394 4.896 8.77194 4.86 8.55594 4.86C8.28394 4.86 8.05194 4.908 7.85994 5.004C7.66794 5.1 7.50794 5.224 7.37994 5.376C7.25994 5.528 7.17194 5.692 7.11594 5.868C7.05994 6.036 7.03194 6.2 7.03194 6.36C7.03194 6.648 7.08794 6.9 7.19994 7.116C7.31194 7.324 7.46794 7.488 7.66794 7.608C7.87594 7.72 8.11194 7.776 8.37594 7.776ZM14.1619 1.452H15.8419L15.5659 3.732H16.8379L16.6819 5.04H15.4099L14.9299 9H13.2499L13.7299 5.04H12.9139L13.0699 3.732H13.8859L14.1619 1.452ZM18.8846 1.452H20.5646L20.2886 3.732H21.5606L21.4046 5.04H20.1326L19.6526 9H17.9726L18.4526 5.04H17.6366L17.7926 3.732H18.6086L18.8846 1.452ZM25.0472 9.144C24.7352 9.144 24.4112 9.096 24.0752 9C23.7392 8.896 23.4232 8.74 23.1272 8.532C22.8392 8.324 22.6032 8.056 22.4192 7.728C22.2432 7.4 22.1552 7.008 22.1552 6.552C22.1552 6.232 22.2072 5.896 22.3112 5.544C22.4232 5.192 22.5992 4.864 22.8392 4.56C23.0792 4.248 23.3992 3.996 23.7992 3.804C24.1992 3.612 24.6872 3.516 25.2632 3.516C25.7352 3.516 26.1872 3.616 26.6192 3.816C27.0592 4.008 27.4192 4.296 27.6992 4.68C27.9872 5.064 28.1312 5.54 28.1312 6.108C28.1312 6.308 28.1032 6.544 28.0472 6.816C27.9912 7.08 27.8952 7.348 27.7592 7.62C27.6232 7.892 27.4392 8.144 27.2072 8.376C26.9752 8.6 26.6792 8.784 26.3192 8.928C25.9672 9.072 25.5432 9.144 25.0472 9.144ZM25.0952 7.764C25.4392 7.764 25.7072 7.676 25.8992 7.5C26.0912 7.324 26.2272 7.112 26.3072 6.864C26.3872 6.616 26.4272 6.388 26.4272 6.18C26.4272 5.9 26.3792 5.676 26.2832 5.508C26.1952 5.332 26.0832 5.2 25.9472 5.112C25.8112 5.024 25.6752 4.964 25.5392 4.932C25.4032 4.9 25.2912 4.884 25.2032 4.884C24.8752 4.884 24.6112 4.972 24.4112 5.148C24.2112 5.316 24.0672 5.524 23.9792 5.772C23.8912 6.02 23.8472 6.252 23.8472 6.468C23.8472 6.828 23.9192 7.1 24.0632 7.284C24.2152 7.468 24.3872 7.596 24.5792 7.668C24.7792 7.732 24.9512 7.764 25.0952 7.764ZM31.9261 9.144C31.6141 9.144 31.2901 9.096 30.9541 9C30.6181 8.896 30.3021 8.74 30.0061 8.532C29.7181 8.324 29.4821 8.056 29.2981 7.728C29.1221 7.4 29.0341 7.008 29.0341 6.552C29.0341 6.232 29.0861 5.896 29.1901 5.544C29.3021 5.192 29.4781 4.864 29.7181 4.56C29.9581 4.248 30.2781 3.996 30.6781 3.804C31.0781 3.612 31.5661 3.516 32.1421 3.516C32.6141 3.516 33.0661 3.616 33.4981 3.816C33.9381 4.008 34.2981 4.296 34.5781 4.68C34.8661 5.064 35.0101 5.54 35.0101 6.108C35.0101 6.308 34.9821 6.544 34.9261 6.816C34.8701 7.08 34.7741 7.348 34.6381 7.62C34.5021 7.892 34.3181 8.144 34.0861 8.376C33.8541 8.6 33.5581 8.784 33.1981 8.928C32.8461 9.072 32.4221 9.144 31.9261 9.144ZM31.9741 7.764C32.3181 7.764 32.5861 7.676 32.7781 7.5C32.9701 7.324 33.1061 7.112 33.1861 6.864C33.2661 6.616 33.3061 6.388 33.3061 6.18C33.3061 5.9 33.2581 5.676 33.1621 5.508C33.0741 5.332 32.9621 5.2 32.8261 5.112C32.6901 5.024 32.5541 4.964 32.4181 4.932C32.2821 4.9 32.1701 4.884 32.0821 4.884C31.7541 4.884 31.4901 4.972 31.2901 5.148C31.0901 5.316 30.9461 5.524 30.8581 5.772C30.7701 6.02 30.7261 6.252 30.7261 6.468C30.7261 6.828 30.7981 7.1 30.9421 7.284C31.0941 7.468 31.2661 7.596 31.4581 7.668C31.6581 7.732 31.8301 7.764 31.9741 7.764ZM37.737 0.792V3.156H39.333L38.889 2.124L39.045 2.052L41.781 7.128L41.637 7.212C41.637 7.212 40.185 4.608 39.873 4.188C39.393 3.528 38.877 3.348 38.097 3.348H37.737V8.808H39.429C39.825 8.808 40.197 8.796 40.449 8.772C41.193 8.724 41.733 8.664 41.973 7.356C42.177 6.276 42.405 3.912 42.405 3.912L42.597 3.924L42.069 9H35.577V8.832C35.577 8.832 36.129 8.82 36.285 8.772C36.561 8.7 36.657 8.532 36.693 8.304C36.729 8.148 36.729 7.86 36.729 7.632V1.968C36.729 1.74 36.729 1.452 36.693 1.296C36.657 1.068 36.561 0.9 36.285 0.827999C36.129 0.779999 35.577 0.767999 35.577 0.767999V0.599999H41.349L43.005 4.068L42.837 4.152L42.333 3.096C41.721 1.848 40.905 0.912 39.729 0.827999C39.477 0.804 39.189 0.792 38.925 0.792H37.737ZM43.8538 9.12C41.6577 9.12 42.9418 5.64 43.2418 4.74L43.4218 4.812C43.0138 6 42.0417 8.928 43.8658 8.928C46.4578 8.928 48.3898 0.539999 46.1698 0.539999C44.9698 0.539999 44.1898 2.808 43.8898 3.732L43.7098 3.672C43.9858 2.724 44.8618 0.348 46.1338 0.348C47.5018 0.348 48.0778 1.908 47.9818 3.72C48.5818 1.908 49.8538 0.348 51.7018 0.348C53.8978 0.348 52.6138 3.828 52.3138 4.728L52.1338 4.656C52.5418 3.468 53.5138 0.539999 51.6898 0.539999C49.0978 0.539999 47.1658 8.928 49.3858 8.928C50.5858 8.928 51.3658 6.66 51.6658 5.736L51.8458 5.796C51.5698 6.744 50.6938 9.12 49.4218 9.12C48.0538 9.12 47.4778 7.56 47.5738 5.748C46.9738 7.56 45.7018 9.12 43.8538 9.12ZM56.7928 9H53.0848V8.832C53.0848 8.832 53.6368 8.82 53.7928 8.772C54.0688 8.7 54.1648 8.532 54.2008 8.304C54.2368 8.148 54.2368 7.74 54.2368 7.428V1.968C54.2368 1.74 54.2368 1.452 54.2008 1.296C54.1648 1.068 54.0688 0.9 53.7928 0.827999C53.6368 0.779999 53.0848 0.767999 53.0848 0.767999V0.599999H55.6648C58.9168 0.599999 59.5168 2.004 59.5168 2.712C59.5168 3.972 58.1488 4.788 56.3488 4.788H56.0368V4.596H56.3608C57.6448 4.596 58.5088 3.828 58.5088 2.736C58.5088 1.404 57.2968 0.792 55.6528 0.792H55.2448V8.244L55.2328 8.724L56.7928 8.844V9ZM62.9836 0.599999V0.767999L61.8076 0.864L61.7836 8.808C61.8556 8.808 63.9076 8.832 64.6396 8.772C65.3836 8.724 65.9236 8.664 66.1636 7.356C66.3676 6.276 66.6196 3.924 66.6196 3.924H66.7876L66.2596 9H59.6356V8.832C59.6356 8.832 60.1876 8.82 60.3436 8.772C60.6316 8.7 60.7156 8.532 60.7516 8.304C60.7876 8.148 60.7876 7.86 60.7996 7.632V1.968C60.7876 1.74 60.7876 1.452 60.7516 1.296C60.7156 1.068 60.6316 0.9 60.3436 0.827999C60.1876 0.779999 59.6356 0.767999 59.6356 0.767999V0.599999H62.9836ZM66.0664 4.788C66.0664 2.172 67.4224 0.504 69.3664 0.504C71.8624 0.504 73.3624 2.724 73.3624 4.788C73.3624 7.32 71.8744 9.096 69.9184 9.096C67.4944 9.096 66.0664 6.816 66.0664 4.788ZM72.7024 6.036C72.7024 3.864 71.2864 1.008 68.7424 1.008C67.3144 1.008 66.7384 2.076 66.7384 3.408C66.7384 5.736 68.1304 8.592 70.5064 8.592C72.0304 8.592 72.7024 7.428 72.7024 6.036ZM79.5592 7.548L79.4392 7.32C79.4392 7.32 79.8712 8.016 80.0752 8.256C80.2912 8.496 80.4592 8.628 80.6992 8.724C80.9152 8.808 81.6112 8.832 81.6112 8.832V9H78.9112V8.832L79.5472 8.784L77.6752 4.716C77.3872 4.764 77.0752 4.788 76.7512 4.788H76.4392V4.596H76.7632C78.0472 4.596 78.9112 3.828 78.9112 2.736C78.9112 1.404 77.6992 0.792 76.0552 0.792H75.6472V8.244L75.6352 8.724L77.1952 8.844V9H73.4872V8.832C73.4872 8.832 74.0392 8.82 74.1952 8.772C74.4712 8.7 74.5672 8.532 74.6032 8.304C74.6392 8.148 74.6392 7.74 74.6392 7.428V1.968C74.6392 1.74 74.6392 1.452 74.6032 1.296C74.5672 1.068 74.4712 0.9 74.1952 0.827999C74.0392 0.779999 73.4872 0.767999 73.4872 0.767999V0.599999H76.0672C79.3192 0.599999 79.9192 2.004 79.9192 2.712C79.9192 3.66 79.1392 4.356 77.9872 4.644L79.5592 7.548ZM83.7683 0.792V3.156H88.0523L87.6203 2.136L87.7643 2.052L90.5003 7.128L90.3563 7.212C90.3563 7.212 88.9043 4.608 88.5923 4.188C87.9803 3.36 87.3803 3.348 86.4563 3.348H83.7683V8.808H88.3523C88.7843 8.808 89.1803 8.796 89.4323 8.772C90.1763 8.724 90.7403 8.436 91.2203 7.344C91.7003 6.24 92.3603 3.96 92.3603 3.96L92.5523 3.996L91.0523 9H81.6083V8.832C81.6083 8.832 82.1603 8.82 82.3163 8.772C82.5923 8.7 82.6883 8.532 82.7243 8.304C82.7603 8.148 82.7603 7.86 82.7603 7.632V1.968C82.7603 1.74 82.7603 1.452 82.7243 1.296C82.6883 1.068 82.5923 0.9 82.3163 0.827999C82.1603 0.779999 81.6083 0.767999 81.6083 0.767999V0.599999H91.4963L93.1523 4.068L92.9843 4.152L92.4803 3.096C91.8683 1.848 91.0523 0.912 89.8763 0.827999C89.6243 0.804 89.2163 0.792 88.7843 0.792H83.7683Z" fill="black"/>
</svg>
